# xmcd CD database file
# Copyright (C) 1993-1998 Ti Kan
# 
# Track frame offsets:
#     150
#     19757
#     38787
#     58287
#     83350
#     104625
#     129820
#     148165
#     169920
#     189785
#     206675
#     220305
# 
# Disc length: 3538 seconds
# 
# Revision: 1
# Processed by: cddbd v1.4b41PL1 Copyright (c) Steve Scherf et al.
# Submitted via: DiscPlay 4.0.4
# 
DISCID=a70dd00c
DTITLE=L'IL Goorge and The Shufflin' Hungarians - L'IL Goorge and The Shuffl
DTITLE=in' Hungarians
DYEAR=1900
DGENRE=
TTITLE0=Gutbucket
TTITLE1=Workin' On My Addiction
TTITLE2=Drunk
TTITLE3=One Helluva Nerve
TTITLE4=Down Home Girl
TTITLE5=Tear It Down
TTITLE6=Lie To Me
TTITLE7=Tell Me What You Want
TTITLE8=You Like It
TTITLE9=Brassy Bessie
TTITLE10=Y'all Learned To Rock From Me
TTITLE11=The Ballade Of Little Georgie
EXTD=
EXTT0=
EXTT1=
EXTT2=
EXTT3=
EXTT4=
EXTT5=
EXTT6=
EXTT7=
EXTT8=
EXTT9=
EXTT10=
EXTT11=
PLAYORDER=
